HIERARCHY
ROOT Hips
{
	OFFSET 0.000000 0.000000 0.000000
	CHANNELS 6 Xposition Yposition Zposition Zrotation Xrotation Yrotation
	JOINT Spine
	{
		OFFSET 0.406860 18.546391 0.815231
		CHANNELS 3 Zrotation Xrotation Yrotation
		JOINT Chest
		{
			OFFSET 0.826050 37.654781 1.655167
			CHANNELS 3 Zrotation Xrotation Yrotation
			JOINT Neck
			{
				OFFSET -2.383804 1.025391 3.456116
				CHANNELS 3 Zrotation Xrotation Yrotation
				JOINT Head
				{
					OFFSET -8.969767 7.269681 15.655700
					CHANNELS 3 Zrotation Xrotation Yrotation
					End Site
					{
						OFFSET 0.0 5.0 0.0
					}
				}
			}
			JOINT LeftShoulder
			{
				OFFSET 8.281408 5.223000 7.842974
				CHANNELS 3 Zrotation Xrotation Yrotation
				JOINT LeftArm
				{
					OFFSET 2.176966 -5.076516 0.994917
					CHANNELS 3 Zrotation Xrotation Yrotation
					JOINT LeftForeArm
					{
						OFFSET -3.897216 24.435974 15.909678
						CHANNELS 3 Zrotation Xrotation Yrotation
						JOINT LeftHand
						{
							OFFSET -2.557252 26.149963 7.234854
							CHANNELS 3 Zrotation Xrotation Yrotation
							End Site
							{
								OFFSET 0.0 5.0 0.0
							}
						}
					}
				}
			}
			JOINT RightShoulder
			{
				OFFSET -9.254311 5.318642 -7.023516
				CHANNELS 3 Zrotation Xrotation Yrotation
				JOINT RightArm
				{
					OFFSET -1.204064 -5.465126 -1.814375
					CHANNELS 3 Zrotation Xrotation Yrotation
					JOINT RightForeArm
					{
						OFFSET -18.378969 22.622990 4.627579
						CHANNELS 3 Zrotation Xrotation Yrotation
						JOINT RightHand
						{
							OFFSET -7.640317 25.326229 5.580551
							CHANNELS 3 Zrotation Xrotation Yrotation
							End Site
							{
								OFFSET 0.0 5.0 0.0
							}
						}
					}
				}
			}
		}
	}
	JOINT LeftUpLeg
	{
		OFFSET 5.947876 -0.634766 4.975891
		CHANNELS 3 Zrotation Xrotation Yrotation
		JOINT LeftLeg
		{
			OFFSET -9.445190 -39.892578 9.616089
			CHANNELS 3 Zrotation Xrotation Yrotation
			JOINT LeftFoot
			{
				OFFSET -7.642341 -39.879211 4.340438
				CHANNELS 3 Zrotation Xrotation Yrotation
				End Site
				{
					OFFSET 0.0 5.0 0.0
				}
			}
		}
	}
	JOINT RightUpLeg
	{
		OFFSET -5.947876 0.634766 -4.975891
		CHANNELS 3 Zrotation Xrotation Yrotation
		JOINT RightLeg
		{
			OFFSET 4.176331 -41.845703 -2.575684
			CHANNELS 3 Zrotation Xrotation Yrotation
			JOINT RightFoot
			{
				OFFSET 10.208460 -38.698761 -8.096196
				CHANNELS 3 Zrotation Xrotation Yrotation
				End Site
				{
					OFFSET 0.0 5.0 0.0
				}
			}
		}
	}
}
MOTION
Frames: 8
Frame Time: 0.033521
14.123917 80.406555 -543.333984 0.000000 0.000000 -0.000000 -0.000000 0.000000 -0.000000 0.000000 0.000000 -0.000000 -0.000000 0.000000 0.000000 0.000000 0.000000 0.000000 -0.000000 0.000000 -0.000000 -0.000000 -0.000000 -0.000000 0.000000 0.000000 -0.000000 0.000000 -0.000000 -0.000000 0.000000 0.000000 0.000000 -0.000000 0.000000 0.000000 0.000000 -0.000000 -0.000000 0.000000 0.000000 0.000000 -0.000000 0.000000 0.000000 0.000000 0.000000 -0.000000 -0.000000 0.000000 0.000000 0.000000 0.000000 -0.000000 -0.000000 0.000000 0.000000 -0.000000 0.000000 -0.000000
14.314357 80.473885 -542.842896 -0.134808 0.246133 -0.542256 0.220844 -0.028781 -0.046144 -0.340164 0.063172 0.250210 -0.000004 -0.129393 -0.000000 0.534274 -0.014472 0.169918 -0.492988 0.179971 0.000776 -0.000004 0.482593 -0.000005 0.776345 0.000001 0.000000 -0.000008 -0.825303 -0.000001 -0.017181 1.244795 0.624250 -0.000000 0.000000 -0.000000 -0.055954 -0.000001 0.000001 0.000002 0.643460 -0.000005 -1.456069 0.539779 -0.247684 0.723886 -0.001027 0.006401 -0.415964 0.462446 -0.236523 0.028808 0.309910 -0.248204 0.237798 -0.000335 0.006392 -0.293190 -0.174989 0.008444
14.232876 80.773727 -543.200256 -0.241143 0.565228 -0.774607 0.547552 0.131064 -0.009090 -0.072576 -0.123262 0.041123 -0.000000 0.062949 -0.000003 0.557040 0.037859 -0.220539 0.193061 0.090772 0.732680 -0.000003 0.209820 0.000000 0.188843 -0.000002 -0.000002 -0.000007 -0.167853 -0.000000 0.108120 0.085320 1.335780 -0.000000 0.000000 -0.000000 -0.741375 0.000000 0.000000 -0.000001 -0.489588 -0.000000 -1.962085 1.414936 -0.043501 -0.325229 0.000460 0.014099 -0.829606 1.423881 -0.447428 0.175295 0.063577 0.033614 -0.251786 0.000358 0.014099 -0.339067 -0.056546 0.012124
14.136802 80.538109 -540.859619 -0.301278 0.601868 -0.526351 0.912374 -0.158625 -0.194996 0.434892 0.178011 -0.070297 -0.000005 -0.458117 0.000002 0.660496 0.078681 0.531175 -0.080322 -0.753911 -0.006717 -0.000001 -0.062949 -0.000001 0.706407 -0.000001 -0.000001 -0.000005 -1.580667 -0.000001 -0.031622 1.112515 2.719737 0.000000 0.000000 -0.000000 -0.951202 -0.000001 -0.000001 -0.000001 -0.461614 0.000001 -2.902460 0.530111 -0.109872 -0.199338 0.000282 0.010384 -1.160413 1.826848 -0.529613 0.036398 -0.618938 0.074080 0.559525 -0.000797 0.010385 -0.662875 -0.525028 -0.067165
13.795398 80.666565 -540.681030 -0.313360 0.734064 -0.527328 0.973305 -0.218388 0.027518 0.318462 -0.095936 0.074878 0.000001 -0.227308 0.000001 0.172874 0.326870 0.428662 -0.337916 -0.421300 -0.274564 0.000002 -0.083934 -0.000003 1.154026 0.000001 0.000001 -0.000000 -1.930375 0.000000 0.335437 2.272200 2.930897 0.000000 -0.000000 0.000000 -1.643626 0.000000 -0.000002 -0.000003 -1.258942 0.000001 -4.412708 1.266039 0.062242 0.842789 -0.001204 0.008428 -1.145569 1.905283 -0.807480 0.498478 -0.501205 -0.015754 0.769349 -0.001098 0.008423 -0.808686 -1.103556 -0.186475
13.573618 80.051933 -538.434265 -0.297901 1.108524 -2.324803 1.278686 0.294337 0.029066 1.242854 0.626111 -0.762213 0.000001 -0.702912 -0.000001 0.407833 -0.318149 0.690036 0.271031 -0.669919 0.301929 -0.000002 0.587501 -0.000004 1.580671 0.000002 -0.000002 -0.000008 -1.468762 -0.000002 0.089512 3.067559 4.298596 0.000000 0.000000 0.000000 -1.140042 0.000002 -0.000001 -0.000001 -0.825305 -0.000003 -3.785781 2.677934 0.100563 -1.143542 0.001627 0.010840 -2.137543 0.674293 -0.947237 0.680772 -0.491931 -0.614631 0.559521 -0.000795 0.010819 -0.795585 -0.734851 -0.122742
13.388618 79.653404 -537.795715 0.003844 1.250662 -3.146241 1.768723 0.480082 -0.067579 1.276748 0.395751 -1.579909 -0.000005 -0.381178 -0.000004 0.094284 -0.461616 -0.218331 0.377228 -0.717228 -0.003287 -0.000002 -0.188848 -0.000006 1.077095 0.000005 0.000001 -0.000002 -1.846440 0.000000 0.732817 0.237242 3.839199 0.000000 -0.000000 0.000000 -2.783660 0.000002 -0.000002 -0.000000 -0.041962 0.000001 -3.958528 1.224139 0.436939 -1.968845 0.002800 0.017699 -2.106131 1.138984 -0.850822 0.611409 -2.126246 -0.730373 0.636464 -0.000907 0.017656 -0.762714 -0.671652 -0.158904
13.289478 79.810646 -537.703735 0.131491 1.434330 -5.021321 2.719657 0.703203 0.357585 3.270921 0.891344 -4.239660 -0.000005 -2.374499 -0.000004 0.057475 -0.464030 2.527698 2.617826 -4.795055 0.906618 -0.000003 -2.664763 -0.000008 -2.196152 0.000000 -0.000000 -0.000004 1.748530 0.000001 -7.224115 12.711211 9.621412 0.000000 0.000000 -0.000000 6.858592 -0.000001 -0.000002 0.000000 -2.280079 0.000003 -4.354799 1.135364 -0.064671 -2.778413 0.003956 0.040043 -2.998903 0.010823 -0.397259 1.216246 -2.473128 -1.134916 -0.643461 0.000915 0.039950 -1.386265 0.172659 -1.452769
